<svg id="anatomySvg" viewBox="0 0 1200 560" role="group" aria-labelledby="svgTitle svgDesc" style="transform: none; display: block;" xmlns="http://www.w3.org/2000/svg" lang="en" xml:lang="en" width="1200" height="560" class="motion-paused">
          <title id="svgTitle">Interactive earthworm dissection diagram</title>
          <desc id="svgDesc">An educational dissection diagram of Metaphire posthuma with selectable anatomical systems.</desc>
          <defs>
            <linearGradient id="trayGrad" x1="0" y1="0" x2="0" y2="1"><stop stop-color="#173e3b"></stop><stop offset="1" stop-color="#071b1a"></stop></linearGradient>
            <linearGradient id="skinGrad" x1="0" y1="0" x2="0" y2="1"><stop stop-color="#b87f69"></stop><stop offset=".42" stop-color="#8b5b4b"></stop><stop offset="1" stop-color="#593c35"></stop></linearGradient>
            <linearGradient id="gutGrad" x1="0" y1="0" x2="0" y2="1"><stop stop-color="#ffd0aa"></stop><stop offset=".5" stop-color="#d37e66"></stop><stop offset="1" stop-color="#7e3d3f"></stop></linearGradient>
            <linearGradient id="gutLight" x1="0" y1="0" x2="0" y2="1"><stop stop-color="#ffe4bb"></stop><stop offset="1" stop-color="#c67c57"></stop></linearGradient>
            <radialGradient id="gizzardGrad"><stop stop-color="#f4c099"></stop><stop offset=".58" stop-color="#b36454"></stop><stop offset="1" stop-color="#683940"></stop></radialGradient>
            <linearGradient id="vesselGrad" x1="0" y1="0" x2="1" y2="0"><stop stop-color="#8e1e34"></stop><stop offset=".45" stop-color="#ff6670"></stop><stop offset="1" stop-color="#8e1e34"></stop></linearGradient>
            <radialGradient id="reproGrad"><stop stop-color="#f3c8ff"></stop><stop offset=".7" stop-color="#a958c6"></stop><stop offset="1" stop-color="#54295f"></stop></radialGradient>
            <filter id="soft"><feGaussianBlur stdDeviation="5"></feGaussianBlur></filter>
            <marker id="arrowRed" markerWidth="8" markerHeight="8" refX="6" refY="3" orient="auto"><path d="M0 0L6 3L0 6Z" fill="#ff8991"></path></marker>
            <marker id="arrowBlue" markerWidth="8" markerHeight="8" refX="6" refY="3" orient="auto"><path d="M0 0L6 3L0 6Z" fill="#7bd8ff"></path></marker>
            <filter id="organicTexture" x="-20%" y="-20%" width="140%" height="140%">
              <feTurbulence type="fractalNoise" baseFrequency="0.012 0.09" numOctaves="4" seed="7" result="grain"></feTurbulence>
              <feColorMatrix in="grain" type="matrix" values="0 0 0 0 0  0 0 0 0 0  0 0 0 0 0  0.85 0.85 0.85 0 0" result="grainAlpha"></feColorMatrix>
              <feComposite in="grainAlpha" in2="SourceGraphic" operator="in"></feComposite>
            </filter>
            <filter id="fineGrain" x="-20%" y="-20%" width="140%" height="140%">
              <feTurbulence type="fractalNoise" baseFrequency="0.35" numOctaves="2" seed="3" result="fine"></feTurbulence>
              <feColorMatrix in="fine" type="matrix" values="0 0 0 0 0  0 0 0 0 0  0 0 0 0 0  0.5 0.5 0.5 0 0" result="fineAlpha"></feColorMatrix>
              <feComposite in="fineAlpha" in2="SourceGraphic" operator="in"></feComposite>
            </filter>
            <radialGradient id="glossHi" cx="34%" cy="20%" r="60%"><stop offset="0" stop-color="#fff" stop-opacity=".55"></stop><stop offset=".45" stop-color="#fff" stop-opacity=".1"></stop><stop offset="1" stop-color="#fff" stop-opacity="0"></stop></radialGradient>
            <radialGradient id="glossHiSmall" cx="30%" cy="22%" r="70%"><stop offset="0" stop-color="#fff" stop-opacity=".7"></stop><stop offset="1" stop-color="#fff" stop-opacity="0"></stop></radialGradient>
            <linearGradient id="skinGrad2" x1="0" y1="0" x2="0" y2="1"><stop stop-color="#c68a70" offset="0"></stop><stop offset=".18" stop-color="#a8664f"></stop><stop offset=".5" stop-color="#7d4438"></stop><stop offset=".78" stop-color="#5a352f"></stop><stop offset="1" stop-color="#3c211f"></stop></linearGradient>
            <radialGradient id="fleshGlow" cx="50%" cy="35%" r="65%"><stop offset="0" stop-color="#ffe0c8" stop-opacity=".5"></stop><stop offset="1" stop-color="#ffe0c8" stop-opacity="0"></stop></radialGradient>
          <clipPath id="externalClip"><path d="M65 280 C88 227 136 190 220 186 C470 180 841 183 1050 208 C1112 217 1140 245 1145 280 C1138 324 1095 350 1044 358 C784 384 420 377 218 374 C133 371 87 330 65 280 Z"></path></clipPath><linearGradient id="caecumPolish" x1="0" y1="0" x2="0" y2="1"><stop offset="0" stop-color="#ffe1b5"></stop><stop offset="0.33" stop-color="#efb082"></stop><stop offset="0.68" stop-color="#bb715f"></stop><stop offset="1" stop-color="#663940"></stop></linearGradient><linearGradient id="nervePolish" x1="0" y1="0" x2="0" y2="1"><stop offset="0" stop-color="#fff3c1"></stop><stop offset="0.28" stop-color="#ffe179"></stop><stop offset="0.65" stop-color="#d8a43a"></stop><stop offset="1" stop-color="#805424"></stop></linearGradient><linearGradient id="epidermisPolish" x1="0" y1="0" x2="0" y2="1"><stop offset="0" stop-color="#f8ccad"></stop><stop offset="0.4" stop-color="#d99c80"></stop><stop offset="1" stop-color="#8f594f"></stop></linearGradient><linearGradient id="skinDepthPolish" x1="0" y1="0" x2="0" y2="1"><stop offset="0" stop-color="#b77d6c"></stop><stop offset="0.55" stop-color="#734e48"></stop><stop offset="1" stop-color="#382e32"></stop></linearGradient><linearGradient id="mucusPolish" x1="0" y1="0" x2="0" y2="1"><stop offset="0" stop-color="#e6fcff"></stop><stop offset="0.28" stop-color="#ade4e5"></stop><stop offset="1" stop-color="#487f89"></stop></linearGradient><radialGradient id="ganglionPolish" cx=".33" cy=".22" r=".85"><stop offset="0" stop-color="#fff8d2"></stop><stop offset="0.38" stop-color="#f7d565"></stop><stop offset="1" stop-color="#957026"></stop></radialGradient><marker id="arrowGasIn" markerWidth="12" markerHeight="12" refX="10" refY="6" orient="auto" markerUnits="userSpaceOnUse"><path d="M0 0L12 6L0 12Z" fill="#85e2ff"></path></marker><marker id="arrowGasOut" markerWidth="12" markerHeight="12" refX="10" refY="6" orient="auto" markerUnits="userSpaceOnUse"><path d="M0 0L12 6L0 12Z" fill="#ffb0b7"></path></marker></defs>
          <rect x="12" y="12" width="1176" height="536" rx="26" fill="url(#trayGrad)" stroke="#3e716a" stroke-width="2"></rect>
          <ellipse cx="600" cy="297" rx="526" ry="155" fill="#000" opacity=".28" filter="url(#soft)" id="bodyShadow" style="display: inline;"></ellipse>
          <path id="bodyBase" d="M62 280C80 201 132 160 222 151C402 133 802 137 1017 162C1084 170 1131 216 1143 279C1130 347 1081 388 1008 398C785 424 389 420 216 403C126 394 78 354 62 280Z" fill="#311f1e" stroke="#cb9278" stroke-width="5" style="display: inline;"></path>
          <g id="segments" aria-hidden="true" style="display: inline;"><path class="segment-shadow" d="M93 164.68Q86 280 93 395.84" style="stroke: #2a1210; stroke-width: 1.4; opacity: 0.4;"></path><path class="segment-line" d="M92 164.68Q85 280 92 395.84" style="stroke: #f0c6a8; stroke-width: 1; opacity: 0.28;"></path><path class="segment-shadow" d="M112.5 164.5Q105.5 280 112.5 396" style="stroke: #2a1210; stroke-width: 1.4; opacity: 0.4;"></path><path class="segment-line" d="M111.5 164.5Q104.5 280 111.5 396" style="stroke: #f0c6a8; stroke-width: 1; opacity: 0.28;"></path><path class="segment-shadow" d="M132 164.32Q125 280 132 396.16" style="stroke: #2a1210; stroke-width: 1.4; opacity: 0.4;"></path><path class="segment-line" d="M131 164.32Q124 280 131 396.16" style="stroke: #f0c6a8; stroke-width: 1; opacity: 0.28;"></path><path class="segment-shadow" d="M151.5 164.14Q144.5 280 151.5 396.32" style="stroke: #2a1210; stroke-width: 1.4; opacity: 0.4;"></path><path class="segment-line" d="M150.5 164.14Q143.5 280 150.5 396.32" style="stroke: #f0c6a8; stroke-width: 1; opacity: 0.28;"></path><path class="segment-shadow" d="M171 163.96Q164 280 171 396.48" style="stroke: #2a1210; stroke-width: 1.4; opacity: 0.4;"></path><path class="segment-line" d="M170 163.96Q163 280 170 396.48" style="stroke: #f0c6a8; stroke-width: 1; opacity: 0.28;"></path><path class="segment-shadow" d="M190.5 163.78Q183.5 280 190.5 396.64" style="stroke: #2a1210; stroke-width: 1.4; opacity: 0.4;"></path><path class="segment-line" d="M189.5 163.78Q182.5 280 189.5 396.64" style="stroke: #f0c6a8; stroke-width: 1; opacity: 0.28;"></path><path class="segment-shadow" d="M210 163.6Q203 280 210 396.8" style="stroke: #2a1210; stroke-width: 1.4; opacity: 0.4;"></path><path class="segment-line" d="M209 163.6Q202 280 209 396.8" style="stroke: #f0c6a8; stroke-width: 1; opacity: 0.28;"></path><path class="segment-shadow" d="M229.5 163.42Q222.5 280 229.5 396.96" style="stroke: #2a1210; stroke-width: 1.4; opacity: 0.4;"></path><path class="segment-line" d="M228.5 163.42Q221.5 280 228.5 396.96" style="stroke: #f0c6a8; stroke-width: 1; opacity: 0.28;"></path><path class="segment-shadow" d="M249 163.24Q242 280 249 397.12" style="stroke: #2a1210; stroke-width: 1.4; opacity: 0.4;"></path><path class="segment-line" d="M248 163.24Q241 280 248 397.12" style="stroke: #f0c6a8; stroke-width: 1; opacity: 0.28;"></path><path class="segment-shadow" d="M268.5 163.06Q261.5 280 268.5 397.28" style="stroke: #2a1210; stroke-width: 1.4; opacity: 0.4;"></path><path class="segment-line" d="M267.5 163.06Q260.5 280 267.5 397.28" style="stroke: #f0c6a8; stroke-width: 1; opacity: 0.28;"></path><path class="segment-shadow" d="M288 162.88Q281 280 288 397.44" style="stroke: #2a1210; stroke-width: 1.4; opacity: 0.4;"></path><path class="segment-line" d="M287 162.88Q280 280 287 397.44" style="stroke: #f0c6a8; stroke-width: 1; opacity: 0.28;"></path><path class="segment-shadow" d="M307.5 162.7Q300.5 280 307.5 397.6" style="stroke: #2a1210; stroke-width: 1.4; opacity: 0.4;"></path><path class="segment-line" d="M306.5 162.7Q299.5 280 306.5 397.6" style="stroke: #f0c6a8; stroke-width: 1; opacity: 0.28;"></path><path class="segment-shadow" d="M327 162.52Q320 280 327 397.76" style="stroke: #2a1210; stroke-width: 1.4; opacity: 0.4;"></path><path class="segment-line" d="M326 162.52Q319 280 326 397.76" style="stroke: #f0c6a8; stroke-width: 1; opacity: 0.28;"></path><path class="segment-shadow" d="M346.5 162.34Q339.5 280 346.5 397.92" style="stroke: #2a1210; stroke-width: 1.4; opacity: 0.4;"></path><path class="segment-line" d="M345.5 162.34Q338.5 280 345.5 397.92" style="stroke: #f0c6a8; stroke-width: 1; opacity: 0.28;"></path><path class="segment-shadow" d="M366 162.16Q359 280 366 398.08" style="stroke: #2a1210; stroke-width: 1.4; opacity: 0.4;"></path><path class="segment-line" d="M365 162.16Q358 280 365 398.08" style="stroke: #f0c6a8; stroke-width: 1; opacity: 0.28;"></path><path class="segment-shadow" d="M385.5 161.98Q378.5 280 385.5 398.24" style="stroke: #2a1210; stroke-width: 1.4; opacity: 0.4;"></path><path class="segment-line" d="M384.5 161.98Q377.5 280 384.5 398.24" style="stroke: #f0c6a8; stroke-width: 1; opacity: 0.28;"></path><path class="segment-shadow" d="M405 161.8Q398 280 405 398.4" style="stroke: #2a1210; stroke-width: 1.4; opacity: 0.4;"></path><path class="segment-line" d="M404 161.8Q397 280 404 398.4" style="stroke: #f0c6a8; stroke-width: 1; opacity: 0.28;"></path><path class="segment-shadow" d="M424.5 161.62Q417.5 280 424.5 398.56" style="stroke: #2a1210; stroke-width: 1.4; opacity: 0.4;"></path><path class="segment-line" d="M423.5 161.62Q416.5 280 423.5 398.56" style="stroke: #f0c6a8; stroke-width: 1; opacity: 0.28;"></path><path class="segment-shadow" d="M444 161.44Q437 280 444 398.72" style="stroke: #2a1210; stroke-width: 1.4; opacity: 0.4;"></path><path class="segment-line" d="M443 161.44Q436 280 443 398.72" style="stroke: #f0c6a8; stroke-width: 1; opacity: 0.28;"></path><path class="segment-shadow" d="M463.5 161.26Q456.5 280 463.5 398.88" style="stroke: #2a1210; stroke-width: 1.4; opacity: 0.4;"></path><path class="segment-line" d="M462.5 161.26Q455.5 280 462.5 398.88" style="stroke: #f0c6a8; stroke-width: 1; opacity: 0.28;"></path><path class="segment-shadow" d="M483 161.08Q476 280 483 399.04" style="stroke: #2a1210; stroke-width: 1.4; opacity: 0.4;"></path><path class="segment-line" d="M482 161.08Q475 280 482 399.04" style="stroke: #f0c6a8; stroke-width: 1; opacity: 0.28;"></path><path class="segment-shadow" d="M502.5 160.9Q495.5 280 502.5 399.2" style="stroke: #2a1210; stroke-width: 1.4; opacity: 0.4;"></path><path class="segment-line" d="M501.5 160.9Q494.5 280 501.5 399.2" style="stroke: #f0c6a8; stroke-width: 1; opacity: 0.28;"></path><path class="segment-shadow" d="M522 160.72Q515 280 522 399.36" style="stroke: #2a1210; stroke-width: 1.4; opacity: 0.4;"></path><path class="segment-line" d="M521 160.72Q514 280 521 399.36" style="stroke: #f0c6a8; stroke-width: 1; opacity: 0.28;"></path><path class="segment-shadow" d="M541.5 160.54Q534.5 280 541.5 399.52" style="stroke: #2a1210; stroke-width: 1.4; opacity: 0.4;"></path><path class="segment-line" d="M540.5 160.54Q533.5 280 540.5 399.52" style="stroke: #f0c6a8; stroke-width: 1; opacity: 0.28;"></path><path class="segment-shadow" d="M561 160.36Q554 280 561 399.68" style="stroke: #2a1210; stroke-width: 1.4; opacity: 0.4;"></path><path class="segment-line" d="M560 160.36Q553 280 560 399.68" style="stroke: #f0c6a8; stroke-width: 1; opacity: 0.28;"></path><path class="segment-shadow" d="M580.5 160.18Q573.5 280 580.5 399.84" style="stroke: #2a1210; stroke-width: 1.4; opacity: 0.4;"></path><path class="segment-line" d="M579.5 160.18Q572.5 280 579.5 399.84" style="stroke: #f0c6a8; stroke-width: 1; opacity: 0.28;"></path><path class="segment-shadow" d="M600 160Q593 280 600 400" style="stroke: #2a1210; stroke-width: 1.4; opacity: 0.4;"></path><path class="segment-line" d="M599 160Q592 280 599 400" style="stroke: #f0c6a8; stroke-width: 1; opacity: 0.28;"></path><path class="segment-shadow" d="M619.5 160.18Q612.5 280 619.5 399.84" style="stroke: #2a1210; stroke-width: 1.4; opacity: 0.4;"></path><path class="segment-line" d="M618.5 160.18Q611.5 280 618.5 399.84" style="stroke: #f0c6a8; stroke-width: 1; opacity: 0.28;"></path><path class="segment-shadow" d="M639 160.36Q632 280 639 399.68" style="stroke: #2a1210; stroke-width: 1.4; opacity: 0.4;"></path><path class="segment-line" d="M638 160.36Q631 280 638 399.68" style="stroke: #f0c6a8; stroke-width: 1; opacity: 0.28;"></path><path class="segment-shadow" d="M658.5 160.54Q651.5 280 658.5 399.52" style="stroke: #2a1210; stroke-width: 1.4; opacity: 0.4;"></path><path class="segment-line" d="M657.5 160.54Q650.5 280 657.5 399.52" style="stroke: #f0c6a8; stroke-width: 1; opacity: 0.28;"></path><path class="segment-shadow" d="M678 160.72Q671 280 678 399.36" style="stroke: #2a1210; stroke-width: 1.4; opacity: 0.4;"></path><path class="segment-line" d="M677 160.72Q670 280 677 399.36" style="stroke: #f0c6a8; stroke-width: 1; opacity: 0.28;"></path><path class="segment-shadow" d="M697.5 160.9Q690.5 280 697.5 399.2" style="stroke: #2a1210; stroke-width: 1.4; opacity: 0.4;"></path><path class="segment-line" d="M696.5 160.9Q689.5 280 696.5 399.2" style="stroke: #f0c6a8; stroke-width: 1; opacity: 0.28;"></path><path class="segment-shadow" d="M717 161.08Q710 280 717 399.04" style="stroke: #2a1210; stroke-width: 1.4; opacity: 0.4;"></path><path class="segment-line" d="M716 161.08Q709 280 716 399.04" style="stroke: #f0c6a8; stroke-width: 1; opacity: 0.28;"></path><path class="segment-shadow" d="M736.5 161.26Q729.5 280 736.5 398.88" style="stroke: #2a1210; stroke-width: 1.4; opacity: 0.4;"></path><path class="segment-line" d="M735.5 161.26Q728.5 280 735.5 398.88" style="stroke: #f0c6a8; stroke-width: 1; opacity: 0.28;"></path><path class="segment-shadow" d="M756 161.44Q749 280 756 398.72" style="stroke: #2a1210; stroke-width: 1.4; opacity: 0.4;"></path><path class="segment-line" d="M755 161.44Q748 280 755 398.72" style="stroke: #f0c6a8; stroke-width: 1; opacity: 0.28;"></path><path class="segment-shadow" d="M775.5 161.62Q768.5 280 775.5 398.56" style="stroke: #2a1210; stroke-width: 1.4; opacity: 0.4;"></path><path class="segment-line" d="M774.5 161.62Q767.5 280 774.5 398.56" style="stroke: #f0c6a8; stroke-width: 1; opacity: 0.28;"></path><path class="segment-shadow" d="M795 161.8Q788 280 795 398.4" style="stroke: #2a1210; stroke-width: 1.4; opacity: 0.4;"></path><path class="segment-line" d="M794 161.8Q787 280 794 398.4" style="stroke: #f0c6a8; stroke-width: 1; opacity: 0.28;"></path><path class="segment-shadow" d="M814.5 161.98Q807.5 280 814.5 398.24" style="stroke: #2a1210; stroke-width: 1.4; opacity: 0.4;"></path><path class="segment-line" d="M813.5 161.98Q806.5 280 813.5 398.24" style="stroke: #f0c6a8; stroke-width: 1; opacity: 0.28;"></path><path class="segment-shadow" d="M834 162.16Q827 280 834 398.08" style="stroke: #2a1210; stroke-width: 1.4; opacity: 0.4;"></path><path class="segment-line" d="M833 162.16Q826 280 833 398.08" style="stroke: #f0c6a8; stroke-width: 1; opacity: 0.28;"></path><path class="segment-shadow" d="M853.5 162.34Q846.5 280 853.5 397.92" style="stroke: #2a1210; stroke-width: 1.4; opacity: 0.4;"></path><path class="segment-line" d="M852.5 162.34Q845.5 280 852.5 397.92" style="stroke: #f0c6a8; stroke-width: 1; opacity: 0.28;"></path><path class="segment-shadow" d="M873 162.52Q866 280 873 397.76" style="stroke: #2a1210; stroke-width: 1.4; opacity: 0.4;"></path><path class="segment-line" d="M872 162.52Q865 280 872 397.76" style="stroke: #f0c6a8; stroke-width: 1; opacity: 0.28;"></path><path class="segment-shadow" d="M892.5 162.7Q885.5 280 892.5 397.6" style="stroke: #2a1210; stroke-width: 1.4; opacity: 0.4;"></path><path class="segment-line" d="M891.5 162.7Q884.5 280 891.5 397.6" style="stroke: #f0c6a8; stroke-width: 1; opacity: 0.28;"></path><path class="segment-shadow" d="M912 162.88Q905 280 912 397.44" style="stroke: #2a1210; stroke-width: 1.4; opacity: 0.4;"></path><path class="segment-line" d="M911 162.88Q904 280 911 397.44" style="stroke: #f0c6a8; stroke-width: 1; opacity: 0.28;"></path><path class="segment-shadow" d="M931.5 163.06Q924.5 280 931.5 397.28" style="stroke: #2a1210; stroke-width: 1.4; opacity: 0.4;"></path><path class="segment-line" d="M930.5 163.06Q923.5 280 930.5 397.28" style="stroke: #f0c6a8; stroke-width: 1; opacity: 0.28;"></path><path class="segment-shadow" d="M951 163.24Q944 280 951 397.12" style="stroke: #2a1210; stroke-width: 1.4; opacity: 0.4;"></path><path class="segment-line" d="M950 163.24Q943 280 950 397.12" style="stroke: #f0c6a8; stroke-width: 1; opacity: 0.28;"></path><path class="segment-shadow" d="M970.5 163.42Q963.5 280 970.5 396.96" style="stroke: #2a1210; stroke-width: 1.4; opacity: 0.4;"></path><path class="segment-line" d="M969.5 163.42Q962.5 280 969.5 396.96" style="stroke: #f0c6a8; stroke-width: 1; opacity: 0.28;"></path><path class="segment-shadow" d="M990 163.6Q983 280 990 396.8" style="stroke: #2a1210; stroke-width: 1.4; opacity: 0.4;"></path><path class="segment-line" d="M989 163.6Q982 280 989 396.8" style="stroke: #f0c6a8; stroke-width: 1; opacity: 0.28;"></path><path class="segment-shadow" d="M1009.5 163.78Q1002.5 280 1009.5 396.64" style="stroke: #2a1210; stroke-width: 1.4; opacity: 0.4;"></path><path class="segment-line" d="M1008.5 163.78Q1001.5 280 1008.5 396.64" style="stroke: #f0c6a8; stroke-width: 1; opacity: 0.28;"></path><path class="segment-shadow" d="M1029 163.96Q1022 280 1029 396.48" style="stroke: #2a1210; stroke-width: 1.4; opacity: 0.4;"></path><path class="segment-line" d="M1028 163.96Q1021 280 1028 396.48" style="stroke: #f0c6a8; stroke-width: 1; opacity: 0.28;"></path><path class="segment-shadow" d="M1048.5 164.14Q1041.5 280 1048.5 396.32" style="stroke: #2a1210; stroke-width: 1.4; opacity: 0.4;"></path><path class="segment-line" d="M1047.5 164.14Q1040.5 280 1047.5 396.32" style="stroke: #f0c6a8; stroke-width: 1; opacity: 0.28;"></path><path class="segment-shadow" d="M1068 164.32Q1061 280 1068 396.16" style="stroke: #2a1210; stroke-width: 1.4; opacity: 0.4;"></path><path class="segment-line" d="M1067 164.32Q1060 280 1067 396.16" style="stroke: #f0c6a8; stroke-width: 1; opacity: 0.28;"></path><path class="segment-shadow" d="M1087.5 164.5Q1080.5 280 1087.5 396" style="stroke: #2a1210; stroke-width: 1.4; opacity: 0.4;"></path><path class="segment-line" d="M1086.5 164.5Q1079.5 280 1086.5 396" style="stroke: #f0c6a8; stroke-width: 1; opacity: 0.28;"></path></g>

          <g id="layer-setup" class="layer active" style="display: inline;">
            <path d="M62 280C80 201 132 160 222 151C402 133 802 137 1017 162C1084 170 1131 216 1143 279C1130 347 1081 388 1008 398C785 424 389 420 216 403C126 394 78 354 62 280Z" fill="url(#skinGrad2)" stroke="#d99872" stroke-width="4"></path><path d="M62 280C80 201 132 160 222 151C402 133 802 137 1017 162C1084 170 1131 216 1143 279C1130 347 1081 388 1008 398C785 424 389 420 216 403C126 394 78 354 62 280Z" fill="#1c0f0e" filter="url(#organicTexture)" opacity=".38" style="mix-blend-mode:multiply;pointer-events:none" class="texture-overlay"></path><path d="M62 280C80 201 132 160 222 151C402 133 802 137 1017 162C1084 170 1131 216 1143 279C1130 347 1081 388 1008 398C785 424 389 420 216 403C126 394 78 354 62 280Z" fill="#000" filter="url(#fineGrain)" opacity=".12" style="mix-blend-mode:overlay;pointer-events:none" class="texture-overlay"></path><ellipse cx="330" cy="205" rx="430" ry="72" fill="url(#glossHi)" style="mix-blend-mode:soft-light;pointer-events:none" opacity=".2" clip-path="url(#externalClip)"></ellipse><ellipse cx="860" cy="230" rx="220" ry="46" fill="url(#glossHiSmall)" opacity=".2" style="mix-blend-mode:soft-light;pointer-events:none" clip-path="url(#externalClip)"></ellipse>
            <path d="M82 276C181 257 968 256 1125 279" fill="none" stroke="#4b252a" stroke-width="8" opacity=".7"></path>
            <g class="svg-structure targeted" data-target="pin-anterior" tabindex="0" role="button" aria-hidden="false" aria-disabled="false" aria-label="Anterior anchoring point"><circle class="hit" cx="120" cy="280" r="34" style="fill: none; stroke: none; stroke-width: 12px;"></circle><circle cx="120" cy="280" r="12" fill="#d8e5e0" stroke="#183d39" stroke-width="4" style="stroke: #fff08b; stroke-width: 3;"></circle><path d="M120 232V270" stroke="#f7c84b" stroke-width="6" stroke-linecap="round" style="stroke: #fff08b; stroke-width: 3;"></path><text x="70" y="178" class="organ-label" data-en-label="Anterior" data-en-x="70" data-en-y="178" data-en-font="" lang="en" xml:lang="en" style="fill: #fffbe5; stroke: #fff08b; stroke-width: 4; stroke-linejoin: round; font-size: 16px; font-weight: 700; font-family: DejaVu Sans;" paint-order="stroke" id="proof-label-0"><tspan x="70" dy="0">Anterior</tspan></text></g>
            <g class="svg-structure" data-target="pin-posterior" tabindex="0" role="button" aria-hidden="false" aria-disabled="false" aria-label="Posterior anchoring point"><circle class="hit" cx="1084" cy="280" r="34" style="fill: none; stroke: none; stroke-width: 12px;"></circle><circle cx="1084" cy="280" r="12" fill="#d8e5e0" stroke="#183d39" stroke-width="4"></circle><path d="M1084 232V270" stroke="#f7c84b" stroke-width="6" stroke-linecap="round"></path><text x="1015" y="178" class="organ-label" data-en-label="Posterior" data-en-x="1015" data-en-y="178" data-en-font="" lang="en" xml:lang="en" style="fill: #f6fff9; stroke: #061515; stroke-width: 3; stroke-linejoin: round; font-size: 16px; font-weight: 700; font-family: DejaVu Sans;" paint-order="stroke" id="proof-label-1"><tspan x="1015" dy="0">Posterior</tspan></text></g>
            <g class="svg-structure" data-target="dorsal-incision" tabindex="0" role="button" aria-hidden="false" aria-disabled="false" aria-label="Shallow dorsolateral incision line"><path class="hit" d="M220 260C430 246 804 248 1010 267" fill="none" stroke="transparent" stroke-width="38" style="fill: none; stroke: none; stroke-width: 12px;"></path><path d="M220 260C430 246 804 248 1010 267" class="action-guide" style="fill: none; stroke: #fff08b; stroke-width: 5; stroke-dasharray: 10 7;"></path><text x="527" y="235" class="organ-label" data-en-label="Dorsolateral incision line" data-en-x="527" data-en-y="235" data-en-font="" lang="en" xml:lang="en" style="fill: #f6fff9; stroke: #061515; stroke-width: 3; stroke-linejoin: round; font-size: 16px; font-weight: 700; font-family: DejaVu Sans;" paint-order="stroke" id="proof-label-2"><tspan x="527" dy="0">Dorsolateral incision line</tspan></text></g>
            <g class="svg-structure" data-target="open-flaps" tabindex="0" role="button" aria-hidden="false" aria-disabled="false" aria-label="Body-wall flaps"><path class="hit" d="M550 250L600 210L650 250L600 335Z" style="fill: none; stroke: none; stroke-width: 12px;"></path><path d="M556 254L600 216L644 254" fill="none" stroke="#fff08b" stroke-width="5"></path><path d="M600 216V335" fill="none" stroke="#fff08b" stroke-width="3"></path><text x="510" y="346" class="organ-label" data-en-label="Body-wall flaps" data-en-x="510" data-en-y="346" data-en-font="" lang="en" xml:lang="en" style="fill: #f6fff9; stroke: #061515; stroke-width: 3; stroke-linejoin: round; font-size: 16px; font-weight: 700; font-family: DejaVu Sans;" paint-order="stroke" id="proof-label-3"><tspan x="510" dy="0">Body-wall flaps</tspan></text></g>
            <g class="svg-structure" data-target="secure-flaps" tabindex="0" role="button" aria-hidden="false" aria-disabled="false" aria-label="Lateral flap pins"><circle class="hit" cx="605" cy="370" r="38" style="fill: none; stroke: none; stroke-width: 12px;"></circle><circle cx="570" cy="370" r="9" fill="#d8e5e0"></circle><circle cx="640" cy="370" r="9" fill="#d8e5e0"></circle><path d="M570 350V365M640 350V365" stroke="#f7c84b" stroke-width="5"></path><text x="505" y="438" class="organ-label" data-en-label="Lateral pins" data-en-x="505" data-en-y="438" data-en-font="" lang="en" xml:lang="en" style="fill: #f6fff9; stroke: #061515; stroke-width: 3; stroke-linejoin: round; font-size: 16px; font-weight: 700; font-family: DejaVu Sans;" paint-order="stroke" id="proof-label-4"><tspan x="505" dy="0">Lateral pins</tspan></text></g>
            
          </g>

          <g id="internalFlaps" aria-hidden="true" style="display: none;">
            <path class="flap" d="M90 276C110 195 170 157 262 150L1030 166C972 199 926 221 860 235C573 220 345 221 90 276Z" style="fill: #835d4f; stroke: #c18b74; stroke-width: 2; opacity: 0.44;"></path>
            <path class="flap" d="M90 286C115 355 176 391 263 402L1025 393C969 364 915 341 855 328C566 343 335 342 90 286Z" style="fill: #835d4f; stroke: #c18b74; stroke-width: 2; opacity: 0.44;"></path>
            <path d="M94 278C310 244 813 245 1128 280C840 320 335 317 94 282Z" fill="#e9b394" opacity=".18" stroke="#d9a080" stroke-width="2"></path>
          </g>

          

          

          <g id="targetOverlay" aria-hidden="true"></g>
          <g id="selectionOverlay" aria-hidden="true"></g>
        </svg>