<svg xmlns="http://www.w3.org/2000/svg" viewBox="0 0 1200 560" preserveAspectRatio="xMidYMid meet">
<style>.hit{display:none}.target-ring,.selection-ring{display:none}</style>
<defs>
            <linearGradient id="trayGrad" x1="0" y1="0" x2="0" y2="1"><stop stop-color="#173e3b"/><stop offset="1" stop-color="#071b1a"/></linearGradient>
            <linearGradient id="skinGrad" x1="0" y1="0" x2="0" y2="1"><stop stop-color="#b87f69"/><stop offset=".42" stop-color="#8b5b4b"/><stop offset="1" stop-color="#593c35"/></linearGradient>
            <linearGradient id="gutGrad" x1="0" y1="0" x2="0" y2="1"><stop stop-color="#ffd0aa"/><stop offset=".5" stop-color="#d37e66"/><stop offset="1" stop-color="#7e3d3f"/></linearGradient>
            <linearGradient id="gutLight" x1="0" y1="0" x2="0" y2="1"><stop stop-color="#ffe4bb"/><stop offset="1" stop-color="#c67c57"/></linearGradient>
            <radialGradient id="gizzardGrad"><stop stop-color="#f4c099"/><stop offset=".58" stop-color="#b36454"/><stop offset="1" stop-color="#683940"/></radialGradient>
            <linearGradient id="vesselGrad" x1="0" y1="0" x2="1" y2="0"><stop stop-color="#8e1e34"/><stop offset=".45" stop-color="#ff6670"/><stop offset="1" stop-color="#8e1e34"/></linearGradient>
            <radialGradient id="reproGrad"><stop stop-color="#f3c8ff"/><stop offset=".7" stop-color="#a958c6"/><stop offset="1" stop-color="#54295f"/></radialGradient>
            <filter id="soft"><feGaussianBlur stdDeviation="5"/></filter>
            <marker id="arrowRed" markerWidth="8" markerHeight="8" refX="6" refY="3" orient="auto"><path d="M0 0L6 3L0 6Z" fill="#ff8991"/></marker>
            <marker id="arrowBlue" markerWidth="8" markerHeight="8" refX="6" refY="3" orient="auto"><path d="M0 0L6 3L0 6Z" fill="#7bd8ff"/></marker>
            <filter id="organicTexture" x="-20%" y="-20%" width="140%" height="140%">
              <feTurbulence type="fractalNoise" baseFrequency="0.012 0.09" numOctaves="4" seed="7" result="grain"/>
              <feColorMatrix in="grain" type="matrix" values="0 0 0 0 0  0 0 0 0 0  0 0 0 0 0  0.85 0.85 0.85 0 0" result="grainAlpha"/>
              <feComposite in="grainAlpha" in2="SourceGraphic" operator="in"/>
            </filter>
            <filter id="fineGrain" x="-20%" y="-20%" width="140%" height="140%">
              <feTurbulence type="fractalNoise" baseFrequency="0.35" numOctaves="2" seed="3" result="fine"/>
              <feColorMatrix in="fine" type="matrix" values="0 0 0 0 0  0 0 0 0 0  0 0 0 0 0  0.5 0.5 0.5 0 0" result="fineAlpha"/>
              <feComposite in="fineAlpha" in2="SourceGraphic" operator="in"/>
            </filter>
            <radialGradient id="glossHi" cx="34%" cy="20%" r="60%"><stop offset="0" stop-color="#fff" stop-opacity=".55"/><stop offset=".45" stop-color="#fff" stop-opacity=".1"/><stop offset="1" stop-color="#fff" stop-opacity="0"/></radialGradient>
            <radialGradient id="glossHiSmall" cx="30%" cy="22%" r="70%"><stop offset="0" stop-color="#fff" stop-opacity=".7"/><stop offset="1" stop-color="#fff" stop-opacity="0"/></radialGradient>
            <linearGradient id="skinGrad2" x1="0" y1="0" x2="0" y2="1"><stop stop-color="#c68a70" offset="0"/><stop offset=".18" stop-color="#a8664f"/><stop offset=".5" stop-color="#7d4438"/><stop offset=".78" stop-color="#5a352f"/><stop offset="1" stop-color="#3c211f"/></linearGradient>
            <radialGradient id="fleshGlow" cx="50%" cy="35%" r="65%"><stop offset="0" stop-color="#ffe0c8" stop-opacity=".5"/><stop offset="1" stop-color="#ffe0c8" stop-opacity="0"/></radialGradient>
          <clipPath id="externalClip"><path d="M65 280 C88 227 136 190 220 186 C470 180 841 183 1050 208 C1112 217 1140 245 1145 280 C1138 324 1095 350 1044 358 C784 384 420 377 218 374 C133 371 87 330 65 280 Z"/></clipPath><linearGradient id="caecumPolish" x1="0" y1="0" x2="0" y2="1"><stop offset="0" stop-color="#ffe1b5"/><stop offset="0.33" stop-color="#efb082"/><stop offset="0.68" stop-color="#bb715f"/><stop offset="1" stop-color="#663940"/></linearGradient><linearGradient id="nervePolish" x1="0" y1="0" x2="0" y2="1"><stop offset="0" stop-color="#fff3c1"/><stop offset="0.28" stop-color="#ffe179"/><stop offset="0.65" stop-color="#d8a43a"/><stop offset="1" stop-color="#805424"/></linearGradient><linearGradient id="epidermisPolish" x1="0" y1="0" x2="0" y2="1"><stop offset="0" stop-color="#f8ccad"/><stop offset="0.4" stop-color="#d99c80"/><stop offset="1" stop-color="#8f594f"/></linearGradient><linearGradient id="skinDepthPolish" x1="0" y1="0" x2="0" y2="1"><stop offset="0" stop-color="#b77d6c"/><stop offset="0.55" stop-color="#734e48"/><stop offset="1" stop-color="#382e32"/></linearGradient><linearGradient id="mucusPolish" x1="0" y1="0" x2="0" y2="1"><stop offset="0" stop-color="#e6fcff"/><stop offset="0.28" stop-color="#ade4e5"/><stop offset="1" stop-color="#487f89"/></linearGradient><radialGradient id="ganglionPolish" cx=".33" cy=".22" r=".85"><stop offset="0" stop-color="#fff8d2"/><stop offset="0.38" stop-color="#f7d565"/><stop offset="1" stop-color="#957026"/></radialGradient><marker id="arrowGasIn" markerWidth="12" markerHeight="12" refX="10" refY="6" orient="auto" markerUnits="userSpaceOnUse"><path d="M0 0L12 6L0 12Z" fill="#85e2ff"/></marker><marker id="arrowGasOut" markerWidth="12" markerHeight="12" refX="10" refY="6" orient="auto" markerUnits="userSpaceOnUse"><path d="M0 0L12 6L0 12Z" fill="#ffb0b7"/></marker></defs>
<rect x="12" y="12" width="1176" height="536" rx="26" fill="url(#trayGrad)" stroke="#3e716a" stroke-width="2"/>

<path id="bodyBase" d="M62 280C80 201 132 160 222 151C402 133 802 137 1017 162C1084 170 1131 216 1143 279C1130 347 1081 388 1008 398C785 424 389 420 216 403C126 394 78 354 62 280Z" fill="#311f1e" stroke="#cb9278" stroke-width="5"/>
<g id="layer-digestive" class="layer">
            <g class="svg-structure" data-structure="pharynx"><ellipse class="hit" cx="176" cy="280" rx="55" ry="66"/><path d="M130 280C138 239 165 218 199 235C218 245 224 271 214 304C205 332 167 341 143 316C132 305 128 293 130 280Z" fill="url(#gutLight)" stroke="#ffe2be" stroke-width="3"/></g>
            <g class="svg-structure" data-structure="oesophagus"><path class="hit" d="M212 280C246 267 281 270 314 280" fill="none" stroke="transparent" stroke-width="45"/><path d="M212 280C246 267 281 270 314 280" fill="none" stroke="url(#gutLight)" stroke-width="22" stroke-linecap="round"/></g>
            <g class="svg-structure" data-structure="gizzard"><ellipse class="hit" cx="348" cy="280" rx="48" ry="63"/><ellipse cx="348" cy="280" rx="38" ry="51" fill="url(#gizzardGrad)" stroke="#ffd5aa" stroke-width="4"/><ellipse cx="348" cy="280" rx="38" ry="51" fill="#3a1418" opacity=".3" style="mix-blend-mode:multiply;pointer-events:none" class="texture-overlay"/><ellipse cx="337" cy="258" rx="14" ry="17" fill="url(#glossHiSmall)" style="mix-blend-mode:soft-light;pointer-events:none"/><path d="M326 248Q350 270 373 247M325 311Q350 291 373 313" fill="none" stroke="#783b45" stroke-width="5"/></g>
            <g class="svg-structure" data-structure="stomach"><path class="hit" d="M389 280C438 256 495 257 534 280C500 309 437 311 389 280Z"/><path d="M389 280C438 256 495 257 534 280C500 309 437 311 389 280Z" fill="url(#gutGrad)" stroke="#f5b08a" stroke-width="3"/><path d="M389 280C438 256 495 257 534 280C500 309 437 311 389 280Z" fill="#3a1418" opacity=".22" style="mix-blend-mode:multiply;pointer-events:none" class="texture-overlay"/><ellipse cx="440" cy="266" rx="30" ry="10" fill="url(#glossHiSmall)" opacity=".8" style="mix-blend-mode:soft-light;pointer-events:none"/></g>
            <g class="svg-structure" data-structure="intestine"><path class="hit" d="M530 280C661 256 869 255 1097 279" fill="none" stroke="transparent" stroke-width="82"/><path d="M530 280C661 256 869 255 1097 279" fill="none" stroke="url(#gutGrad)" stroke-width="62" stroke-linecap="round"/><path d="M530 280C661 256 869 255 1097 279" fill="none" stroke="#2a0f12" stroke-width="62" stroke-linecap="round" opacity=".22" style="mix-blend-mode:multiply;pointer-events:none" class="texture-overlay"/><path d="M545 266C683 248 892 256 1082 276" fill="none" stroke="#ffd1a5" stroke-width="8" opacity=".55"/><path d="M560 258C700 240 880 248 1075 270" fill="none" stroke="url(#glossHiSmall)" stroke-width="14" stroke-linecap="round" opacity=".6" style="mix-blend-mode:soft-light;pointer-events:none"/></g>
            <g class="svg-structure" data-structure="intestinal-caeca"><rect class="hit" x="625" y="190" width="130" height="170" rx="30"/><path d="M726 267 C710 257 693 238 672 230 C659 225 647 224 644 232 C641 241 653 251 669 258 C687 265 704 273 720 285 C727 287 734 278 726 267 Z" fill="url(#caecumPolish)" stroke="#f4c49d" stroke-width="2.5" stroke-linejoin="round"/><path d="M723 283 C707 296 689 313 669 319 C654 324 644 331 648 339 C652 347 666 343 680 338 C701 330 718 313 733 296 C737 288 730 279 723 283 Z" fill="url(#caecumPolish)" stroke="#f4c49d" stroke-width="2.5" stroke-linejoin="round"/><path d="M650 232 C674 233 701 258 721 271" fill="none" stroke="#ffe6c4" stroke-width="3" stroke-linecap="round" opacity=".66" pointer-events="none" class="surface-detail"/><path d="M654 335 C682 330 706 307 726 290" fill="none" stroke="#ffe6c4" stroke-width="3" stroke-linecap="round" opacity=".66" pointer-events="none" class="surface-detail"/></g>
            <g class="svg-structure" data-structure="typhlosole"><path class="hit" d="M750 280C840 270 938 271 1020 279" fill="none" stroke="transparent" stroke-width="32"/><path d="M755 250 Q894 240 1018 269 L1018 297 Q874 270 755 303 Z" fill="#4b2e30" stroke="#eaa78a" stroke-width="2" stroke-dasharray="6 4"/><path d="M750 280C840 270 938 271 1020 279" fill="none" stroke="#5c313f" stroke-width="12" stroke-linecap="round"/><path d="M750 277C840 268 938 269 1020 277" fill="none" stroke="#ffd4aa" stroke-width="3"/></g>
          </g>
</svg>
