<svg xmlns="http://www.w3.org/2000/svg" viewBox="0 0 1200 560" preserveAspectRatio="xMidYMid meet">
<defs>
            <linearGradient id="trayGrad" x1="0" y1="0" x2="0" y2="1"><stop stop-color="#173e3b"/><stop offset="1" stop-color="#071b1a"/></linearGradient>
            <linearGradient id="skinGrad" x1="0" y1="0" x2="0" y2="1"><stop stop-color="#b87f69"/><stop offset=".42" stop-color="#8b5b4b"/><stop offset="1" stop-color="#593c35"/></linearGradient>
            <linearGradient id="gutGrad" x1="0" y1="0" x2="0" y2="1"><stop stop-color="#ffd0aa"/><stop offset=".5" stop-color="#d37e66"/><stop offset="1" stop-color="#7e3d3f"/></linearGradient>
            <linearGradient id="gutLight" x1="0" y1="0" x2="0" y2="1"><stop stop-color="#ffe4bb"/><stop offset="1" stop-color="#c67c57"/></linearGradient>
            <radialGradient id="gizzardGrad"><stop stop-color="#f4c099"/><stop offset=".58" stop-color="#b36454"/><stop offset="1" stop-color="#683940"/></radialGradient>
            <linearGradient id="vesselGrad" x1="0" y1="0" x2="1" y2="0"><stop stop-color="#8e1e34"/><stop offset=".45" stop-color="#ff6670"/><stop offset="1" stop-color="#8e1e34"/></linearGradient>
            <radialGradient id="reproGrad"><stop stop-color="#f3c8ff"/><stop offset=".7" stop-color="#a958c6"/><stop offset="1" stop-color="#54295f"/></radialGradient>
            <filter id="soft"><feGaussianBlur stdDeviation="5"/></filter>
            <marker id="arrowRed" markerWidth="8" markerHeight="8" refX="6" refY="3" orient="auto"><path d="M0 0L6 3L0 6Z" fill="#ff8991"/></marker>
            <marker id="arrowBlue" markerWidth="8" markerHeight="8" refX="6" refY="3" orient="auto"><path d="M0 0L6 3L0 6Z" fill="#7bd8ff"/></marker>
            <filter id="organicTexture" x="-20%" y="-20%" width="140%" height="140%">
              <feTurbulence type="fractalNoise" baseFrequency="0.012 0.09" numOctaves="4" seed="7" result="grain"/>
              <feColorMatrix in="grain" type="matrix" values="0 0 0 0 0  0 0 0 0 0  0 0 0 0 0  0.85 0.85 0.85 0 0" result="grainAlpha"/>
              <feComposite in="grainAlpha" in2="SourceGraphic" operator="in"/>
            </filter>
            <filter id="fineGrain" x="-20%" y="-20%" width="140%" height="140%">
              <feTurbulence type="fractalNoise" baseFrequency="0.35" numOctaves="2" seed="3" result="fine"/>
              <feColorMatrix in="fine" type="matrix" values="0 0 0 0 0  0 0 0 0 0  0 0 0 0 0  0.5 0.5 0.5 0 0" result="fineAlpha"/>
              <feComposite in="fineAlpha" in2="SourceGraphic" operator="in"/>
            </filter>
            <radialGradient id="glossHi" cx="34%" cy="20%" r="60%"><stop offset="0" stop-color="#fff" stop-opacity=".55"/><stop offset=".45" stop-color="#fff" stop-opacity=".1"/><stop offset="1" stop-color="#fff" stop-opacity="0"/></radialGradient>
            <radialGradient id="glossHiSmall" cx="30%" cy="22%" r="70%"><stop offset="0" stop-color="#fff" stop-opacity=".7"/><stop offset="1" stop-color="#fff" stop-opacity="0"/></radialGradient>
            <linearGradient id="skinGrad2" x1="0" y1="0" x2="0" y2="1"><stop stop-color="#c68a70" offset="0"/><stop offset=".18" stop-color="#a8664f"/><stop offset=".5" stop-color="#7d4438"/><stop offset=".78" stop-color="#5a352f"/><stop offset="1" stop-color="#3c211f"/></linearGradient>
            <radialGradient id="fleshGlow" cx="50%" cy="35%" r="65%"><stop offset="0" stop-color="#ffe0c8" stop-opacity=".5"/><stop offset="1" stop-color="#ffe0c8" stop-opacity="0"/></radialGradient>
          <clipPath id="externalClip"><path d="M65 280 C88 227 136 190 220 186 C470 180 841 183 1050 208 C1112 217 1140 245 1145 280 C1138 324 1095 350 1044 358 C784 384 420 377 218 374 C133 371 87 330 65 280 Z"/></clipPath><linearGradient id="caecumPolish" x1="0" y1="0" x2="0" y2="1"><stop offset="0" stop-color="#ffe1b5"/><stop offset="0.33" stop-color="#efb082"/><stop offset="0.68" stop-color="#bb715f"/><stop offset="1" stop-color="#663940"/></linearGradient><linearGradient id="nervePolish" x1="0" y1="0" x2="0" y2="1"><stop offset="0" stop-color="#fff3c1"/><stop offset="0.28" stop-color="#ffe179"/><stop offset="0.65" stop-color="#d8a43a"/><stop offset="1" stop-color="#805424"/></linearGradient><linearGradient id="epidermisPolish" x1="0" y1="0" x2="0" y2="1"><stop offset="0" stop-color="#f8ccad"/><stop offset="0.4" stop-color="#d99c80"/><stop offset="1" stop-color="#8f594f"/></linearGradient><linearGradient id="skinDepthPolish" x1="0" y1="0" x2="0" y2="1"><stop offset="0" stop-color="#b77d6c"/><stop offset="0.55" stop-color="#734e48"/><stop offset="1" stop-color="#382e32"/></linearGradient><linearGradient id="mucusPolish" x1="0" y1="0" x2="0" y2="1"><stop offset="0" stop-color="#e6fcff"/><stop offset="0.28" stop-color="#ade4e5"/><stop offset="1" stop-color="#487f89"/></linearGradient><radialGradient id="ganglionPolish" cx=".33" cy=".22" r=".85"><stop offset="0" stop-color="#fff8d2"/><stop offset="0.38" stop-color="#f7d565"/><stop offset="1" stop-color="#957026"/></radialGradient><marker id="arrowGasIn" markerWidth="12" markerHeight="12" refX="10" refY="6" orient="auto" markerUnits="userSpaceOnUse"><path d="M0 0L12 6L0 12Z" fill="#85e2ff"/></marker><marker id="arrowGasOut" markerWidth="12" markerHeight="12" refX="10" refY="6" orient="auto" markerUnits="userSpaceOnUse"><path d="M0 0L12 6L0 12Z" fill="#ffb0b7"/></marker></defs>
<rect x="12" y="12" width="1176" height="536" rx="26" fill="url(#trayGrad)" stroke="#3e716a" stroke-width="2"/>

<path id="bodyBase" d="M62 280C80 201 132 160 222 151C402 133 802 137 1017 162C1084 170 1131 216 1143 279C1130 347 1081 388 1008 398C785 424 389 420 216 403C126 394 78 354 62 280Z" fill="#311f1e" stroke="#cb9278" stroke-width="5"/>
<g id="layer-excretory" class="layer"><path d="M115 280 H1080" fill="none" stroke="#ba8d73" stroke-width="26" stroke-linecap="round" opacity=".45"/><g class="svg-structure" data-structure="pharyngeal-nephridia"><path d="M142 211 q8 -17 15 0 t15 0 m-30 10 q8 -17 15 0 t15 0" fill="none" stroke="#9af1dd" stroke-width="4" stroke-linecap="round"/><path d="M157 211 Q115 211 130 280" fill="none" stroke="#66a99c" stroke-width="2" stroke-linecap="round"/><path d="M142 347 q8 -17 15 0 t15 0 m-30 10 q8 -17 15 0 t15 0" fill="none" stroke="#9af1dd" stroke-width="4" stroke-linecap="round"/><path d="M157 347 Q115 347 130 280" fill="none" stroke="#66a99c" stroke-width="2" stroke-linecap="round"/><path d="M193 211 q8 -17 15 0 t15 0 m-30 10 q8 -17 15 0 t15 0" fill="none" stroke="#9af1dd" stroke-width="4" stroke-linecap="round"/><path d="M208 211 Q115 211 130 280" fill="none" stroke="#66a99c" stroke-width="2" stroke-linecap="round"/><path d="M193 347 q8 -17 15 0 t15 0 m-30 10 q8 -17 15 0 t15 0" fill="none" stroke="#9af1dd" stroke-width="4" stroke-linecap="round"/><path d="M208 347 Q115 347 130 280" fill="none" stroke="#66a99c" stroke-width="2" stroke-linecap="round"/><path d="M244 211 q8 -17 15 0 t15 0 m-30 10 q8 -17 15 0 t15 0" fill="none" stroke="#9af1dd" stroke-width="4" stroke-linecap="round"/><path d="M259 211 Q115 211 130 280" fill="none" stroke="#66a99c" stroke-width="2" stroke-linecap="round"/><path d="M244 347 q8 -17 15 0 t15 0 m-30 10 q8 -17 15 0 t15 0" fill="none" stroke="#9af1dd" stroke-width="4" stroke-linecap="round"/><path d="M259 347 Q115 347 130 280" fill="none" stroke="#66a99c" stroke-width="2" stroke-linecap="round"/></g><g class="svg-structure" data-structure="septal-nephridia"><path d="M535 184 V379" fill="none" stroke="#acb6a2" stroke-width="1.5" stroke-linecap="round" opacity=".6"/><path d="M517 220 q-10 -12 0 -15 q14 -2 8 10 q-4 10 -10 0" fill="none" stroke="#80e0cf" stroke-width="2.5" stroke-linecap="round"/><path d="M522 222 L535 274" fill="none" stroke="#579f91" stroke-width="1" stroke-linecap="round"/><path d="M543 220 q-10 -12 0 -15 q14 -2 8 10 q-4 10 -10 0" fill="none" stroke="#80e0cf" stroke-width="2.5" stroke-linecap="round"/><path d="M548 222 L535 274" fill="none" stroke="#579f91" stroke-width="1" stroke-linecap="round"/><path d="M517 249 q-10 -12 0 -15 q14 -2 8 10 q-4 10 -10 0" fill="none" stroke="#80e0cf" stroke-width="2.5" stroke-linecap="round"/><path d="M522 251 L535 274" fill="none" stroke="#579f91" stroke-width="1" stroke-linecap="round"/><path d="M543 249 q-10 -12 0 -15 q14 -2 8 10 q-4 10 -10 0" fill="none" stroke="#80e0cf" stroke-width="2.5" stroke-linecap="round"/><path d="M548 251 L535 274" fill="none" stroke="#579f91" stroke-width="1" stroke-linecap="round"/><path d="M517 322 q-10 -12 0 -15 q14 -2 8 10 q-4 10 -10 0" fill="none" stroke="#80e0cf" stroke-width="2.5" stroke-linecap="round"/><path d="M522 324 L535 274" fill="none" stroke="#579f91" stroke-width="1" stroke-linecap="round"/><path d="M543 322 q-10 -12 0 -15 q14 -2 8 10 q-4 10 -10 0" fill="none" stroke="#80e0cf" stroke-width="2.5" stroke-linecap="round"/><path d="M548 324 L535 274" fill="none" stroke="#579f91" stroke-width="1" stroke-linecap="round"/><path d="M517 351 q-10 -12 0 -15 q14 -2 8 10 q-4 10 -10 0" fill="none" stroke="#80e0cf" stroke-width="2.5" stroke-linecap="round"/><path d="M522 353 L535 274" fill="none" stroke="#579f91" stroke-width="1" stroke-linecap="round"/><path d="M543 351 q-10 -12 0 -15 q14 -2 8 10 q-4 10 -10 0" fill="none" stroke="#80e0cf" stroke-width="2.5" stroke-linecap="round"/><path d="M548 353 L535 274" fill="none" stroke="#579f91" stroke-width="1" stroke-linecap="round"/><path d="M610 184 V379" fill="none" stroke="#acb6a2" stroke-width="1.5" stroke-linecap="round" opacity=".6"/><path d="M592 220 q-10 -12 0 -15 q14 -2 8 10 q-4 10 -10 0" fill="none" stroke="#80e0cf" stroke-width="2.5" stroke-linecap="round"/><path d="M597 222 L610 274" fill="none" stroke="#579f91" stroke-width="1" stroke-linecap="round"/><path d="M618 220 q-10 -12 0 -15 q14 -2 8 10 q-4 10 -10 0" fill="none" stroke="#80e0cf" stroke-width="2.5" stroke-linecap="round"/><path d="M623 222 L610 274" fill="none" stroke="#579f91" stroke-width="1" stroke-linecap="round"/><path d="M592 249 q-10 -12 0 -15 q14 -2 8 10 q-4 10 -10 0" fill="none" stroke="#80e0cf" stroke-width="2.5" stroke-linecap="round"/><path d="M597 251 L610 274" fill="none" stroke="#579f91" stroke-width="1" stroke-linecap="round"/><path d="M618 249 q-10 -12 0 -15 q14 -2 8 10 q-4 10 -10 0" fill="none" stroke="#80e0cf" stroke-width="2.5" stroke-linecap="round"/><path d="M623 251 L610 274" fill="none" stroke="#579f91" stroke-width="1" stroke-linecap="round"/><path d="M592 322 q-10 -12 0 -15 q14 -2 8 10 q-4 10 -10 0" fill="none" stroke="#80e0cf" stroke-width="2.5" stroke-linecap="round"/><path d="M597 324 L610 274" fill="none" stroke="#579f91" stroke-width="1" stroke-linecap="round"/><path d="M618 322 q-10 -12 0 -15 q14 -2 8 10 q-4 10 -10 0" fill="none" stroke="#80e0cf" stroke-width="2.5" stroke-linecap="round"/><path d="M623 324 L610 274" fill="none" stroke="#579f91" stroke-width="1" stroke-linecap="round"/><path d="M592 351 q-10 -12 0 -15 q14 -2 8 10 q-4 10 -10 0" fill="none" stroke="#80e0cf" stroke-width="2.5" stroke-linecap="round"/><path d="M597 353 L610 274" fill="none" stroke="#579f91" stroke-width="1" stroke-linecap="round"/><path d="M618 351 q-10 -12 0 -15 q14 -2 8 10 q-4 10 -10 0" fill="none" stroke="#80e0cf" stroke-width="2.5" stroke-linecap="round"/><path d="M623 353 L610 274" fill="none" stroke="#579f91" stroke-width="1" stroke-linecap="round"/><path d="M685 184 V379" fill="none" stroke="#acb6a2" stroke-width="1.5" stroke-linecap="round" opacity=".6"/><path d="M667 220 q-10 -12 0 -15 q14 -2 8 10 q-4 10 -10 0" fill="none" stroke="#80e0cf" stroke-width="2.5" stroke-linecap="round"/><path d="M672 222 L685 274" fill="none" stroke="#579f91" stroke-width="1" stroke-linecap="round"/><path d="M693 220 q-10 -12 0 -15 q14 -2 8 10 q-4 10 -10 0" fill="none" stroke="#80e0cf" stroke-width="2.5" stroke-linecap="round"/><path d="M698 222 L685 274" fill="none" stroke="#579f91" stroke-width="1" stroke-linecap="round"/><path d="M667 249 q-10 -12 0 -15 q14 -2 8 10 q-4 10 -10 0" fill="none" stroke="#80e0cf" stroke-width="2.5" stroke-linecap="round"/><path d="M672 251 L685 274" fill="none" stroke="#579f91" stroke-width="1" stroke-linecap="round"/><path d="M693 249 q-10 -12 0 -15 q14 -2 8 10 q-4 10 -10 0" fill="none" stroke="#80e0cf" stroke-width="2.5" stroke-linecap="round"/><path d="M698 251 L685 274" fill="none" stroke="#579f91" stroke-width="1" stroke-linecap="round"/><path d="M667 322 q-10 -12 0 -15 q14 -2 8 10 q-4 10 -10 0" fill="none" stroke="#80e0cf" stroke-width="2.5" stroke-linecap="round"/><path d="M672 324 L685 274" fill="none" stroke="#579f91" stroke-width="1" stroke-linecap="round"/><path d="M693 322 q-10 -12 0 -15 q14 -2 8 10 q-4 10 -10 0" fill="none" stroke="#80e0cf" stroke-width="2.5" stroke-linecap="round"/><path d="M698 324 L685 274" fill="none" stroke="#579f91" stroke-width="1" stroke-linecap="round"/><path d="M667 351 q-10 -12 0 -15 q14 -2 8 10 q-4 10 -10 0" fill="none" stroke="#80e0cf" stroke-width="2.5" stroke-linecap="round"/><path d="M672 353 L685 274" fill="none" stroke="#579f91" stroke-width="1" stroke-linecap="round"/><path d="M693 351 q-10 -12 0 -15 q14 -2 8 10 q-4 10 -10 0" fill="none" stroke="#80e0cf" stroke-width="2.5" stroke-linecap="round"/><path d="M698 353 L685 274" fill="none" stroke="#579f91" stroke-width="1" stroke-linecap="round"/><path d="M760 184 V379" fill="none" stroke="#acb6a2" stroke-width="1.5" stroke-linecap="round" opacity=".6"/><path d="M742 220 q-10 -12 0 -15 q14 -2 8 10 q-4 10 -10 0" fill="none" stroke="#80e0cf" stroke-width="2.5" stroke-linecap="round"/><path d="M747 222 L760 274" fill="none" stroke="#579f91" stroke-width="1" stroke-linecap="round"/><path d="M768 220 q-10 -12 0 -15 q14 -2 8 10 q-4 10 -10 0" fill="none" stroke="#80e0cf" stroke-width="2.5" stroke-linecap="round"/><path d="M773 222 L760 274" fill="none" stroke="#579f91" stroke-width="1" stroke-linecap="round"/><path d="M742 249 q-10 -12 0 -15 q14 -2 8 10 q-4 10 -10 0" fill="none" stroke="#80e0cf" stroke-width="2.5" stroke-linecap="round"/><path d="M747 251 L760 274" fill="none" stroke="#579f91" stroke-width="1" stroke-linecap="round"/><path d="M768 249 q-10 -12 0 -15 q14 -2 8 10 q-4 10 -10 0" fill="none" stroke="#80e0cf" stroke-width="2.5" stroke-linecap="round"/><path d="M773 251 L760 274" fill="none" stroke="#579f91" stroke-width="1" stroke-linecap="round"/><path d="M742 322 q-10 -12 0 -15 q14 -2 8 10 q-4 10 -10 0" fill="none" stroke="#80e0cf" stroke-width="2.5" stroke-linecap="round"/><path d="M747 324 L760 274" fill="none" stroke="#579f91" stroke-width="1" stroke-linecap="round"/><path d="M768 322 q-10 -12 0 -15 q14 -2 8 10 q-4 10 -10 0" fill="none" stroke="#80e0cf" stroke-width="2.5" stroke-linecap="round"/><path d="M773 324 L760 274" fill="none" stroke="#579f91" stroke-width="1" stroke-linecap="round"/><path d="M742 351 q-10 -12 0 -15 q14 -2 8 10 q-4 10 -10 0" fill="none" stroke="#80e0cf" stroke-width="2.5" stroke-linecap="round"/><path d="M747 353 L760 274" fill="none" stroke="#579f91" stroke-width="1" stroke-linecap="round"/><path d="M768 351 q-10 -12 0 -15 q14 -2 8 10 q-4 10 -10 0" fill="none" stroke="#80e0cf" stroke-width="2.5" stroke-linecap="round"/><path d="M773 353 L760 274" fill="none" stroke="#579f91" stroke-width="1" stroke-linecap="round"/><path d="M835 184 V379" fill="none" stroke="#acb6a2" stroke-width="1.5" stroke-linecap="round" opacity=".6"/><path d="M817 220 q-10 -12 0 -15 q14 -2 8 10 q-4 10 -10 0" fill="none" stroke="#80e0cf" stroke-width="2.5" stroke-linecap="round"/><path d="M822 222 L835 274" fill="none" stroke="#579f91" stroke-width="1" stroke-linecap="round"/><path d="M843 220 q-10 -12 0 -15 q14 -2 8 10 q-4 10 -10 0" fill="none" stroke="#80e0cf" stroke-width="2.5" stroke-linecap="round"/><path d="M848 222 L835 274" fill="none" stroke="#579f91" stroke-width="1" stroke-linecap="round"/><path d="M817 249 q-10 -12 0 -15 q14 -2 8 10 q-4 10 -10 0" fill="none" stroke="#80e0cf" stroke-width="2.5" stroke-linecap="round"/><path d="M822 251 L835 274" fill="none" stroke="#579f91" stroke-width="1" stroke-linecap="round"/><path d="M843 249 q-10 -12 0 -15 q14 -2 8 10 q-4 10 -10 0" fill="none" stroke="#80e0cf" stroke-width="2.5" stroke-linecap="round"/><path d="M848 251 L835 274" fill="none" stroke="#579f91" stroke-width="1" stroke-linecap="round"/><path d="M817 322 q-10 -12 0 -15 q14 -2 8 10 q-4 10 -10 0" fill="none" stroke="#80e0cf" stroke-width="2.5" stroke-linecap="round"/><path d="M822 324 L835 274" fill="none" stroke="#579f91" stroke-width="1" stroke-linecap="round"/><path d="M843 322 q-10 -12 0 -15 q14 -2 8 10 q-4 10 -10 0" fill="none" stroke="#80e0cf" stroke-width="2.5" stroke-linecap="round"/><path d="M848 324 L835 274" fill="none" stroke="#579f91" stroke-width="1" stroke-linecap="round"/><path d="M817 351 q-10 -12 0 -15 q14 -2 8 10 q-4 10 -10 0" fill="none" stroke="#80e0cf" stroke-width="2.5" stroke-linecap="round"/><path d="M822 353 L835 274" fill="none" stroke="#579f91" stroke-width="1" stroke-linecap="round"/><path d="M843 351 q-10 -12 0 -15 q14 -2 8 10 q-4 10 -10 0" fill="none" stroke="#80e0cf" stroke-width="2.5" stroke-linecap="round"/><path d="M848 353 L835 274" fill="none" stroke="#579f91" stroke-width="1" stroke-linecap="round"/><path d="M910 184 V379" fill="none" stroke="#acb6a2" stroke-width="1.5" stroke-linecap="round" opacity=".6"/><path d="M892 220 q-10 -12 0 -15 q14 -2 8 10 q-4 10 -10 0" fill="none" stroke="#80e0cf" stroke-width="2.5" stroke-linecap="round"/><path d="M897 222 L910 274" fill="none" stroke="#579f91" stroke-width="1" stroke-linecap="round"/><path d="M918 220 q-10 -12 0 -15 q14 -2 8 10 q-4 10 -10 0" fill="none" stroke="#80e0cf" stroke-width="2.5" stroke-linecap="round"/><path d="M923 222 L910 274" fill="none" stroke="#579f91" stroke-width="1" stroke-linecap="round"/><path d="M892 249 q-10 -12 0 -15 q14 -2 8 10 q-4 10 -10 0" fill="none" stroke="#80e0cf" stroke-width="2.5" stroke-linecap="round"/><path d="M897 251 L910 274" fill="none" stroke="#579f91" stroke-width="1" stroke-linecap="round"/><path d="M918 249 q-10 -12 0 -15 q14 -2 8 10 q-4 10 -10 0" fill="none" stroke="#80e0cf" stroke-width="2.5" stroke-linecap="round"/><path d="M923 251 L910 274" fill="none" stroke="#579f91" stroke-width="1" stroke-linecap="round"/><path d="M892 322 q-10 -12 0 -15 q14 -2 8 10 q-4 10 -10 0" fill="none" stroke="#80e0cf" stroke-width="2.5" stroke-linecap="round"/><path d="M897 324 L910 274" fill="none" stroke="#579f91" stroke-width="1" stroke-linecap="round"/><path d="M918 322 q-10 -12 0 -15 q14 -2 8 10 q-4 10 -10 0" fill="none" stroke="#80e0cf" stroke-width="2.5" stroke-linecap="round"/><path d="M923 324 L910 274" fill="none" stroke="#579f91" stroke-width="1" stroke-linecap="round"/><path d="M892 351 q-10 -12 0 -15 q14 -2 8 10 q-4 10 -10 0" fill="none" stroke="#80e0cf" stroke-width="2.5" stroke-linecap="round"/><path d="M897 353 L910 274" fill="none" stroke="#579f91" stroke-width="1" stroke-linecap="round"/><path d="M918 351 q-10 -12 0 -15 q14 -2 8 10 q-4 10 -10 0" fill="none" stroke="#80e0cf" stroke-width="2.5" stroke-linecap="round"/><path d="M923 353 L910 274" fill="none" stroke="#579f91" stroke-width="1" stroke-linecap="round"/><path d="M985 184 V379" fill="none" stroke="#acb6a2" stroke-width="1.5" stroke-linecap="round" opacity=".6"/><path d="M967 220 q-10 -12 0 -15 q14 -2 8 10 q-4 10 -10 0" fill="none" stroke="#80e0cf" stroke-width="2.5" stroke-linecap="round"/><path d="M972 222 L985 274" fill="none" stroke="#579f91" stroke-width="1" stroke-linecap="round"/><path d="M993 220 q-10 -12 0 -15 q14 -2 8 10 q-4 10 -10 0" fill="none" stroke="#80e0cf" stroke-width="2.5" stroke-linecap="round"/><path d="M998 222 L985 274" fill="none" stroke="#579f91" stroke-width="1" stroke-linecap="round"/><path d="M967 249 q-10 -12 0 -15 q14 -2 8 10 q-4 10 -10 0" fill="none" stroke="#80e0cf" stroke-width="2.5" stroke-linecap="round"/><path d="M972 251 L985 274" fill="none" stroke="#579f91" stroke-width="1" stroke-linecap="round"/><path d="M993 249 q-10 -12 0 -15 q14 -2 8 10 q-4 10 -10 0" fill="none" stroke="#80e0cf" stroke-width="2.5" stroke-linecap="round"/><path d="M998 251 L985 274" fill="none" stroke="#579f91" stroke-width="1" stroke-linecap="round"/><path d="M967 322 q-10 -12 0 -15 q14 -2 8 10 q-4 10 -10 0" fill="none" stroke="#80e0cf" stroke-width="2.5" stroke-linecap="round"/><path d="M972 324 L985 274" fill="none" stroke="#579f91" stroke-width="1" stroke-linecap="round"/><path d="M993 322 q-10 -12 0 -15 q14 -2 8 10 q-4 10 -10 0" fill="none" stroke="#80e0cf" stroke-width="2.5" stroke-linecap="round"/><path d="M998 324 L985 274" fill="none" stroke="#579f91" stroke-width="1" stroke-linecap="round"/><path d="M967 351 q-10 -12 0 -15 q14 -2 8 10 q-4 10 -10 0" fill="none" stroke="#80e0cf" stroke-width="2.5" stroke-linecap="round"/><path d="M972 353 L985 274" fill="none" stroke="#579f91" stroke-width="1" stroke-linecap="round"/><path d="M993 351 q-10 -12 0 -15 q14 -2 8 10 q-4 10 -10 0" fill="none" stroke="#80e0cf" stroke-width="2.5" stroke-linecap="round"/><path d="M998 353 L985 274" fill="none" stroke="#579f91" stroke-width="1" stroke-linecap="round"/></g><g class="svg-structure" data-structure="integumentary-nephridia"><path d="M110 176 q5 -6 9 0 t-4 7" fill="none" stroke="#b1ead3" stroke-width="1.8" stroke-linecap="round"/><path d="M110 388 q5 -6 9 0 t-4 7" fill="none" stroke="#b1ead3" stroke-width="1.8" stroke-linecap="round"/><path d="M140 176 q5 -6 9 0 t-4 7" fill="none" stroke="#b1ead3" stroke-width="1.8" stroke-linecap="round"/><path d="M140 388 q5 -6 9 0 t-4 7" fill="none" stroke="#b1ead3" stroke-width="1.8" stroke-linecap="round"/><path d="M170 176 q5 -6 9 0 t-4 7" fill="none" stroke="#b1ead3" stroke-width="1.8" stroke-linecap="round"/><path d="M170 388 q5 -6 9 0 t-4 7" fill="none" stroke="#b1ead3" stroke-width="1.8" stroke-linecap="round"/><path d="M200 176 q5 -6 9 0 t-4 7" fill="none" stroke="#b1ead3" stroke-width="1.8" stroke-linecap="round"/><path d="M200 388 q5 -6 9 0 t-4 7" fill="none" stroke="#b1ead3" stroke-width="1.8" stroke-linecap="round"/><path d="M230 176 q5 -6 9 0 t-4 7" fill="none" stroke="#b1ead3" stroke-width="1.8" stroke-linecap="round"/><path d="M230 388 q5 -6 9 0 t-4 7" fill="none" stroke="#b1ead3" stroke-width="1.8" stroke-linecap="round"/><path d="M260 176 q5 -6 9 0 t-4 7" fill="none" stroke="#b1ead3" stroke-width="1.8" stroke-linecap="round"/><path d="M260 388 q5 -6 9 0 t-4 7" fill="none" stroke="#b1ead3" stroke-width="1.8" stroke-linecap="round"/><path d="M290 176 q5 -6 9 0 t-4 7" fill="none" stroke="#b1ead3" stroke-width="1.8" stroke-linecap="round"/><path d="M290 388 q5 -6 9 0 t-4 7" fill="none" stroke="#b1ead3" stroke-width="1.8" stroke-linecap="round"/><path d="M320 176 q5 -6 9 0 t-4 7" fill="none" stroke="#b1ead3" stroke-width="1.8" stroke-linecap="round"/><path d="M320 388 q5 -6 9 0 t-4 7" fill="none" stroke="#b1ead3" stroke-width="1.8" stroke-linecap="round"/><path d="M350 176 q5 -6 9 0 t-4 7" fill="none" stroke="#b1ead3" stroke-width="1.8" stroke-linecap="round"/><path d="M350 388 q5 -6 9 0 t-4 7" fill="none" stroke="#b1ead3" stroke-width="1.8" stroke-linecap="round"/><path d="M380 176 q5 -6 9 0 t-4 7" fill="none" stroke="#b1ead3" stroke-width="1.8" stroke-linecap="round"/><path d="M380 388 q5 -6 9 0 t-4 7" fill="none" stroke="#b1ead3" stroke-width="1.8" stroke-linecap="round"/><path d="M410 176 q5 -6 9 0 t-4 7" fill="none" stroke="#b1ead3" stroke-width="1.8" stroke-linecap="round"/><path d="M410 388 q5 -6 9 0 t-4 7" fill="none" stroke="#b1ead3" stroke-width="1.8" stroke-linecap="round"/><path d="M440 176 q5 -6 9 0 t-4 7" fill="none" stroke="#b1ead3" stroke-width="1.8" stroke-linecap="round"/><path d="M440 388 q5 -6 9 0 t-4 7" fill="none" stroke="#b1ead3" stroke-width="1.8" stroke-linecap="round"/><path d="M470 176 q5 -6 9 0 t-4 7" fill="none" stroke="#b1ead3" stroke-width="1.8" stroke-linecap="round"/><path d="M470 388 q5 -6 9 0 t-4 7" fill="none" stroke="#b1ead3" stroke-width="1.8" stroke-linecap="round"/><path d="M500 176 q5 -6 9 0 t-4 7" fill="none" stroke="#b1ead3" stroke-width="1.8" stroke-linecap="round"/><path d="M500 388 q5 -6 9 0 t-4 7" fill="none" stroke="#b1ead3" stroke-width="1.8" stroke-linecap="round"/><path d="M530 176 q5 -6 9 0 t-4 7" fill="none" stroke="#b1ead3" stroke-width="1.8" stroke-linecap="round"/><path d="M530 388 q5 -6 9 0 t-4 7" fill="none" stroke="#b1ead3" stroke-width="1.8" stroke-linecap="round"/><path d="M560 176 q5 -6 9 0 t-4 7" fill="none" stroke="#b1ead3" stroke-width="1.8" stroke-linecap="round"/><path d="M560 388 q5 -6 9 0 t-4 7" fill="none" stroke="#b1ead3" stroke-width="1.8" stroke-linecap="round"/><path d="M590 176 q5 -6 9 0 t-4 7" fill="none" stroke="#b1ead3" stroke-width="1.8" stroke-linecap="round"/><path d="M590 388 q5 -6 9 0 t-4 7" fill="none" stroke="#b1ead3" stroke-width="1.8" stroke-linecap="round"/><path d="M620 176 q5 -6 9 0 t-4 7" fill="none" stroke="#b1ead3" stroke-width="1.8" stroke-linecap="round"/><path d="M620 388 q5 -6 9 0 t-4 7" fill="none" stroke="#b1ead3" stroke-width="1.8" stroke-linecap="round"/><path d="M650 176 q5 -6 9 0 t-4 7" fill="none" stroke="#b1ead3" stroke-width="1.8" stroke-linecap="round"/><path d="M650 388 q5 -6 9 0 t-4 7" fill="none" stroke="#b1ead3" stroke-width="1.8" stroke-linecap="round"/><path d="M680 176 q5 -6 9 0 t-4 7" fill="none" stroke="#b1ead3" stroke-width="1.8" stroke-linecap="round"/><path d="M680 388 q5 -6 9 0 t-4 7" fill="none" stroke="#b1ead3" stroke-width="1.8" stroke-linecap="round"/><path d="M710 176 q5 -6 9 0 t-4 7" fill="none" stroke="#b1ead3" stroke-width="1.8" stroke-linecap="round"/><path d="M710 388 q5 -6 9 0 t-4 7" fill="none" stroke="#b1ead3" stroke-width="1.8" stroke-linecap="round"/><path d="M740 176 q5 -6 9 0 t-4 7" fill="none" stroke="#b1ead3" stroke-width="1.8" stroke-linecap="round"/><path d="M740 388 q5 -6 9 0 t-4 7" fill="none" stroke="#b1ead3" stroke-width="1.8" stroke-linecap="round"/><path d="M770 176 q5 -6 9 0 t-4 7" fill="none" stroke="#b1ead3" stroke-width="1.8" stroke-linecap="round"/><path d="M770 388 q5 -6 9 0 t-4 7" fill="none" stroke="#b1ead3" stroke-width="1.8" stroke-linecap="round"/><path d="M800 176 q5 -6 9 0 t-4 7" fill="none" stroke="#b1ead3" stroke-width="1.8" stroke-linecap="round"/><path d="M800 388 q5 -6 9 0 t-4 7" fill="none" stroke="#b1ead3" stroke-width="1.8" stroke-linecap="round"/><path d="M830 176 q5 -6 9 0 t-4 7" fill="none" stroke="#b1ead3" stroke-width="1.8" stroke-linecap="round"/><path d="M830 388 q5 -6 9 0 t-4 7" fill="none" stroke="#b1ead3" stroke-width="1.8" stroke-linecap="round"/><path d="M860 176 q5 -6 9 0 t-4 7" fill="none" stroke="#b1ead3" stroke-width="1.8" stroke-linecap="round"/><path d="M860 388 q5 -6 9 0 t-4 7" fill="none" stroke="#b1ead3" stroke-width="1.8" stroke-linecap="round"/><path d="M890 176 q5 -6 9 0 t-4 7" fill="none" stroke="#b1ead3" stroke-width="1.8" stroke-linecap="round"/><path d="M890 388 q5 -6 9 0 t-4 7" fill="none" stroke="#b1ead3" stroke-width="1.8" stroke-linecap="round"/><path d="M920 176 q5 -6 9 0 t-4 7" fill="none" stroke="#b1ead3" stroke-width="1.8" stroke-linecap="round"/><path d="M920 388 q5 -6 9 0 t-4 7" fill="none" stroke="#b1ead3" stroke-width="1.8" stroke-linecap="round"/><path d="M950 176 q5 -6 9 0 t-4 7" fill="none" stroke="#b1ead3" stroke-width="1.8" stroke-linecap="round"/><path d="M950 388 q5 -6 9 0 t-4 7" fill="none" stroke="#b1ead3" stroke-width="1.8" stroke-linecap="round"/><path d="M980 176 q5 -6 9 0 t-4 7" fill="none" stroke="#b1ead3" stroke-width="1.8" stroke-linecap="round"/><path d="M980 388 q5 -6 9 0 t-4 7" fill="none" stroke="#b1ead3" stroke-width="1.8" stroke-linecap="round"/><path d="M1010 176 q5 -6 9 0 t-4 7" fill="none" stroke="#b1ead3" stroke-width="1.8" stroke-linecap="round"/><path d="M1010 388 q5 -6 9 0 t-4 7" fill="none" stroke="#b1ead3" stroke-width="1.8" stroke-linecap="round"/><path d="M1040 176 q5 -6 9 0 t-4 7" fill="none" stroke="#b1ead3" stroke-width="1.8" stroke-linecap="round"/><path d="M1040 388 q5 -6 9 0 t-4 7" fill="none" stroke="#b1ead3" stroke-width="1.8" stroke-linecap="round"/><path d="M1070 176 q5 -6 9 0 t-4 7" fill="none" stroke="#b1ead3" stroke-width="1.8" stroke-linecap="round"/><path d="M1070 388 q5 -6 9 0 t-4 7" fill="none" stroke="#b1ead3" stroke-width="1.8" stroke-linecap="round"/></g><g class="svg-structure" data-structure="nephridium"><rect x="335" y="205" width="136" height="150" rx="16" fill="#103b35" stroke="#6daf9f"/><path d="M355 229 q16 27 26 2 q25 -5 28 27 q-35 -8 -29 24 q34 -10 30 17 q-32 -8 -30 14 l32 18" fill="none" stroke="#8fe7d6" stroke-width="5" stroke-linecap="round"/></g></g>
</svg>
